# xmcd
#
# Track frame offsets: 
#        150
#        18451
#        34130
#        56713
#        73991
#        96406
#        110478
#        132202
#        149410
#        171330
#        194114
#        213615
#        232247
#        254222
#
# Disc length: 3664 seconds
#
# Revision: 0
# Processed by: cddbd v1.5.2PL0 Copyright (c) Steve Scherf et al.
# Submitted via: ExactAudioCopy v1.2
#
DISCID=ef0e4e0e
DTITLE=Eddie C. Campbell - Tear This World Up
DYEAR=2008
DGENRE=Blues
TTITLE0=Makin' Popcorn
TTITLE1=Big World
TTITLE2=Easy Baby
TTITLE3=Tie Your Time Up
TTITLE4=Voodoo
TTITLE5=Love Me with a Feeling
TTITLE6=Vibrations in the Air
TTITLE7=Care
TTITLE8=It's So Easy
TTITLE9=My Last Affair
TTITLE10=I'm Just Your Fool
TTITLE11=All Nite
TTITLE12=Summertime
TTITLE13=Bluesman
EXTD=
EXTT0=
EXTT1=
EXTT2=
EXTT3=
EXTT4=
EXTT5=
EXTT6=
EXTT7=
EXTT8=
EXTT9=
EXTT10=
EXTT11=
EXTT12=
EXTT13=
PLAYORDER=
